# xmcd
#
# Track frame offsets: 
#        150
#        23193
#        39794
#        63245
#        86036
#
# Disc length: 1436 seconds
#
# Revision: 0
# Processed by: cddbd v1.5.2PL0 Copyright (c) Steve Scherf et al.
# Submitted via: ExactAudioCopy v0.99pb5
#
DISCID=32059a05
DTITLE=Satin Blue - Hifive - Sessions 2009
DYEAR=2009
DGENRE=Blues
TTITLE0=Light in the Dark
TTITLE1=Cool Cat
TTITLE2=Crushed and Burned
TTITLE3=Living on the Edge of a Knife
TTITLE4=Today
EXTD=
EXTT0=
EXTT1=
EXTT2=
EXTT3=
EXTT4=
PLAYORDER=
